<svg width="22" height="23" viewBox="0 0 22 23" fill="none" xmlns="http://www.w3.org/2000/svg">
<path d="M21 21.2798L19 19.2798M10.5 20.2798C11.7476 20.2798 12.9829 20.0341 14.1355 19.5566C15.2881 19.0792 16.3354 18.3795 17.2175 17.4973C18.0997 16.6151 18.7994 15.5679 19.2769 14.4153C19.7543 13.2627 20 12.0273 20 10.7798C20 9.53223 19.7543 8.29689 19.2769 7.14429C18.7994 5.9917 18.0997 4.94443 17.2175 4.06227C16.3354 3.18011 15.2881 2.48035 14.1355 2.00293C12.9829 1.52551 11.7476 1.27979 10.5 1.27979C7.98044 1.27979 5.56408 2.28068 3.78249 4.06227C2.00089 5.84387 1 8.26023 1 10.7798C1 13.2993 2.00089 15.7157 3.78249 17.4973C5.56408 19.2789 7.98044 20.2798 10.5 20.2798Z" stroke="#212220" stroke-width="1.5" stroke-linecap="round" stroke-linejoin="round"/>
</svg>
