<svg width="35" height="35" viewBox="0 0 35 35" fill="none" xmlns="http://www.w3.org/2000/svg">
<g clip-path="url(#clip0_1489_5329)">
<path d="M5.83333 18.9583H10.2083V21.875H5.83333V18.9583ZM13.125 21.875H17.5V18.9583H13.125V21.875ZM5.83333 27.7083H10.2083V24.7917H5.83333V27.7083ZM13.125 27.7083H17.5V24.7917H13.125V27.7083ZM5.83333 10.2083H10.2083V7.29167H5.83333V10.2083ZM13.125 10.2083H17.5V7.29167H13.125V10.2083ZM5.83333 16.0417H10.2083V13.125H5.83333V16.0417ZM13.125 16.0417H17.5V13.125H13.125V16.0417ZM35 11.6667V35H0V4.375C0 3.21468 0.460936 2.10188 1.28141 1.28141C2.10188 0.460936 3.21468 0 4.375 0L18.9583 0C20.1187 0 21.2315 0.460936 22.0519 1.28141C22.8724 2.10188 23.3333 3.21468 23.3333 4.375V7.29167H30.625C31.7853 7.29167 32.8981 7.7526 33.7186 8.57308C34.5391 9.39355 35 10.5063 35 11.6667ZM20.4167 4.375C20.4167 3.98823 20.263 3.61729 19.9895 3.3438C19.716 3.07031 19.3451 2.91667 18.9583 2.91667H4.375C3.98823 2.91667 3.61729 3.07031 3.3438 3.3438C3.07031 3.61729 2.91667 3.98823 2.91667 4.375V32.0833H20.4167V4.375ZM32.0833 11.6667C32.0833 11.2799 31.9297 10.909 31.6562 10.6355C31.3827 10.362 31.0118 10.2083 30.625 10.2083H23.3333V32.0833H32.0833V11.6667ZM26.25 21.875H29.1667V18.9583H26.25V21.875ZM26.25 27.7083H29.1667V24.7917H26.25V27.7083ZM26.25 16.0417H29.1667V13.125H26.25V16.0417Z" fill="#45A736"/>
</g>
<defs>
<clipPath id="clip0_1489_5329">
<rect width="35" height="35" fill="white"/>
</clipPath>
</defs>
</svg>
