<svg width="35" height="35" viewBox="0 0 35 35" fill="none" xmlns="http://www.w3.org/2000/svg">
<g clip-path="url(#clip0_1489_5335)">
<path d="M21.8333 8.79171H21.9167H23.3333H30.625C31.3875 8.79171 32.1188 9.09461 32.6579 9.63378C33.1971 10.1729 33.5 10.9042 33.5 11.6667V32.0417H1.5V11.6667C1.5 10.9042 1.8029 10.1729 2.34207 9.63378C2.88124 9.09461 3.6125 8.79171 4.375 8.79171H11.6667H13.0833H13.1667H14.5833H20.4167H21.8333ZM23.3333 23.375H24.8333V21.875V18.9584V17.4584H23.3333H20.4583V14.5834V13.0834H18.9583H16.0417H14.5417V14.5834V17.4584H11.6667H10.1667V18.9584V21.875V23.375H11.6667H14.5417V26.25V27.75H16.0417H18.9583H20.4583V26.25V23.375H23.3333Z" stroke="#45A736" stroke-width="3"/>
</g>
<defs>
<clipPath id="clip0_1489_5335">
<rect width="35" height="35" fill="white"/>
</clipPath>
</defs>
</svg>
