<svg width="35" height="35" viewBox="0 0 35 35" fill="none" xmlns="http://www.w3.org/2000/svg">
<g clip-path="url(#clip0_1489_5337)">
<path d="M7.29167 5.83333C7.29167 5.02833 7.945 4.375 8.75 4.375H11.6667V1.45833C11.6667 0.653333 12.32 0 13.125 0C13.93 0 14.5833 0.653333 14.5833 1.45833V4.375H17.5C18.305 4.375 18.9583 5.02833 18.9583 5.83333C18.9583 6.63833 18.305 7.29167 17.5 7.29167H14.5833V10.2083C14.5833 11.0133 13.93 11.6667 13.125 11.6667C12.32 11.6667 11.6667 11.0133 11.6667 10.2083V7.29167H8.75C7.945 7.29167 7.29167 6.63833 7.29167 5.83333ZM33.8858 18.9802L23.9619 30.1175C21.1969 33.2208 17.2288 35 13.074 35H5.83333C2.61625 35 0 32.3838 0 29.1667V21.875C0 18.6579 2.61625 16.0417 5.83333 16.0417H18.7512C20.4123 16.0417 21.8692 16.9298 22.6727 18.2554L27.3627 13.1017C28.1531 12.234 29.2323 11.725 30.4048 11.671C31.5758 11.6054 32.6987 12.021 33.5665 12.8115C35.3369 14.4258 35.4798 17.1923 33.8858 18.9788V18.9802ZM31.6021 14.9683C31.3119 14.7044 30.9327 14.579 30.5404 14.5863C30.1467 14.6052 29.785 14.7744 29.5196 15.066L23.065 22.1594C22.5035 23.7213 21.1123 24.9171 19.3988 25.1621L11.8723 26.2369C11.0775 26.3521 10.3367 25.7979 10.2229 25.0002C10.1092 24.2025 10.6633 23.4646 11.4596 23.3508L18.986 22.276C19.8013 22.1594 20.4167 21.4506 20.4167 20.6267C20.4167 19.7079 19.67 18.9613 18.7512 18.9613H5.83333C4.22479 18.9613 2.91667 20.2694 2.91667 21.8779V29.1696C2.91667 30.7781 4.22479 32.0863 5.83333 32.0863H13.074C16.3975 32.0863 19.5737 30.6629 21.7846 28.1808L31.7085 17.0421C32.2438 16.4412 32.1956 15.5123 31.6021 14.9698V14.9683Z" fill="#45A736"/>
</g>
<defs>
<clipPath id="clip0_1489_5337">
<rect width="35" height="35" fill="white"/>
</clipPath>
</defs>
</svg>
