<svg width="35" height="35" viewBox="0 0 35 35" fill="none" xmlns="http://www.w3.org/2000/svg">
<g clip-path="url(#clip0_1489_5327)">
<path d="M30.625 5.83333H21.875V4.375C21.875 3.21468 21.4141 2.10188 20.5936 1.28141C19.7731 0.460936 18.6603 0 17.5 0C16.3397 0 15.2269 0.460936 14.4064 1.28141C13.5859 2.10188 13.125 3.21468 13.125 4.375V5.83333H4.375C3.21468 5.83333 2.10188 6.29427 1.28141 7.11474C0.460936 7.93521 0 9.04801 0 10.2083L0 35H35V10.2083C35 9.04801 34.5391 7.93521 33.7186 7.11474C32.8981 6.29427 31.7853 5.83333 30.625 5.83333ZM16.0417 4.375C16.0417 3.98823 16.1953 3.61729 16.4688 3.3438C16.7423 3.07031 17.1132 2.91667 17.5 2.91667C17.8868 2.91667 18.2577 3.07031 18.5312 3.3438C18.8047 3.61729 18.9583 3.98823 18.9583 4.375V8.75H16.0417V4.375ZM32.0833 32.0833H2.91667V10.2083C2.91667 9.82156 3.07031 9.45063 3.3438 9.17714C3.61729 8.90365 3.98823 8.75 4.375 8.75H13.125V11.6667H21.875V8.75H30.625C31.0118 8.75 31.3827 8.90365 31.6562 9.17714C31.9297 9.45063 32.0833 9.82156 32.0833 10.2083V32.0833ZM5.83333 29.1667H16.0417V14.5833H5.83333V29.1667ZM8 17H14V27H8V17ZM18.9583 20.4167H29.1667V22.5H18.9583V20.4167ZM18.9583 14.5833H29.1667V17H18.9583V14.5833ZM18.9583 26.25H26.25V28H18.9583V26.25Z" fill="#45A736"/>
</g>
<defs>
<clipPath id="clip0_1489_5327">
<rect width="35" height="35" fill="white"/>
</clipPath>
</defs>
</svg>
