<svg width="24" height="24" viewBox="0 0 24 24" fill="none" xmlns="http://www.w3.org/2000/svg">
<path d="M17.625 8.24965H12.75V15.0465C12.75 15.2454 12.671 15.4362 12.5303 15.5769C12.3897 15.7175 12.1989 15.7965 12 15.7965C11.8011 15.7965 11.6103 15.7175 11.4697 15.5769C11.329 15.4362 11.25 15.2454 11.25 15.0465V8.24965H6.375C5.67904 8.2504 5.01179 8.5272 4.51967 9.01932C4.02755 9.51144 3.75074 10.1787 3.75 10.8747V19.8747C3.75074 20.5706 4.02755 21.2379 4.51967 21.73C5.01179 22.2221 5.67904 22.4989 6.375 22.4997H17.625C18.321 22.4989 18.9882 22.2221 19.4803 21.73C19.9725 21.2379 20.2493 20.5706 20.25 19.8747V10.8747C20.2493 10.1787 19.9725 9.51144 19.4803 9.01932C18.9882 8.5272 18.321 8.2504 17.625 8.24965ZM12.75 4.06043L15.2198 6.52981C15.3616 6.66452 15.5505 6.73852 15.746 6.73601C15.9416 6.73351 16.1285 6.65471 16.2668 6.5164C16.4051 6.3781 16.4839 6.19125 16.4864 5.99568C16.4889 5.80011 16.4149 5.61129 16.2802 5.4695L12.5302 1.7195C12.3895 1.57895 12.1988 1.5 12 1.5C11.8012 1.5 11.6105 1.57895 11.4698 1.7195L7.71984 5.4695C7.58513 5.61129 7.51114 5.80011 7.51364 5.99568C7.51614 6.19125 7.59495 6.3781 7.73325 6.5164C7.87155 6.65471 8.0584 6.73351 8.25398 6.73601C8.44955 6.73852 8.63836 6.66452 8.78016 6.52981L11.25 4.06043V8.24965H12.75V4.06043Z" fill="#45A736"/>
</svg>
